
<svg width="19" height="18" viewBox="0 0 19 18" fill="none" xmlns="http://www.w3.org/2000/svg">
<path fill-rule="evenodd" clip-rule="evenodd" d="M8.42397 1.65829C8.48153 1.47575 8.59578 1.31632 8.75014 1.20315C8.90449 1.08998 9.0909 1.02896 9.2823 1.02896C9.4737 1.02896 9.66011 1.08998 9.81446 1.20315C9.96882 1.31632 10.0831 1.47575 10.1406 1.65829L11.6906 6.42495H16.6906C16.8889 6.41746 17.0841 6.47507 17.2465 6.58899C17.409 6.7029 17.5296 6.86686 17.5901 7.0558C17.6505 7.24474 17.6475 7.44829 17.5814 7.63533C17.5153 7.82238 17.3897 7.98263 17.224 8.09162L13.1656 11.0333L14.7156 15.8083C14.7769 15.9902 14.7785 16.1869 14.72 16.3697C14.6616 16.5526 14.5463 16.7119 14.3908 16.8245C14.2354 16.9371 14.048 16.9971 13.8561 16.9957C13.6642 16.9943 13.4777 16.9315 13.324 16.8166L9.2573 13.8416L5.19897 16.7916C5.04522 16.9065 4.85877 16.9693 4.66684 16.9707C4.4749 16.9721 4.28754 16.9121 4.13211 16.7995C3.97668 16.6869 3.86133 16.5276 3.80289 16.3447C3.74445 16.1619 3.746 15.9652 3.8073 15.7833L5.3573 11.0083L1.29897 8.06662C1.1332 7.95763 1.00768 7.79738 0.941567 7.61033C0.875458 7.42329 0.872401 7.21975 0.932863 7.0308C0.993325 6.84186 1.11398 6.6779 1.2764 6.56399C1.43881 6.45007 1.63406 6.39246 1.8323 6.39995H6.8323L8.42397 1.65829Z" stroke="#EBEBEB" stroke-width="1.5" stroke-linecap="round" stroke-linejoin="round"/>

<svg width="17" height="16" viewBox="0 0 17 16" fill="none" xmlns="http://www.w3.org/2000/svg">
<path fill-rule="evenodd" clip-rule="evenodd" d="M7.8341 2.1266C7.88014 1.98057 7.97155 1.85303 8.09503 1.76249C8.21851 1.67195 8.36764 1.62314 8.52076 1.62314C8.67388 1.62314 8.82301 1.67195 8.94649 1.76249C9.06997 1.85303 9.16138 1.98057 9.20743 2.1266L10.4474 5.93993H14.4474C14.606 5.93394 14.7622 5.98003 14.8921 6.07116C15.0221 6.16229 15.1186 6.29345 15.167 6.44461C15.2153 6.59577 15.2129 6.7586 15.16 6.90824C15.1071 7.05787 15.0067 7.18608 14.8741 7.27327L11.6274 9.6266L12.8674 13.4466C12.9165 13.5921 12.9177 13.7495 12.871 13.8957C12.8242 14.042 12.7319 14.1695 12.6076 14.2596C12.4832 14.3497 12.3333 14.3977 12.1798 14.3965C12.0263 14.3954 11.8771 14.3452 11.7541 14.2533L8.50076 11.8733L5.2541 14.2333C5.1311 14.3252 4.98194 14.3754 4.82839 14.3765C4.67484 14.3777 4.52495 14.3297 4.40061 14.2396C4.27627 14.1495 4.18398 14.022 4.13723 13.8757C4.09049 13.7295 4.09172 13.5721 4.14076 13.4266L5.38076 9.6066L2.1341 7.25327C2.00148 7.16608 1.90106 7.03787 1.84818 6.88824C1.79529 6.7386 1.79284 6.57577 1.84121 6.42461C1.88958 6.27345 1.98611 6.14229 2.11604 6.05116C2.24597 5.96003 2.40217 5.91394 2.56076 5.91993H6.56076L7.8341 2.1266Z" stroke="#EBEBEB" stroke-width="1.5" stroke-linecap="round" stroke-linejoin="round"/>

</svg>
