
<svg width="21" height="20" viewBox="0 0 21 20" fill="none" xmlns="http://www.w3.org/2000/svg">
<path fill-rule="evenodd" clip-rule="evenodd" d="M9.42397 2.65829C9.48153 2.47575 9.59578 2.31632 9.75014 2.20315C9.90449 2.08998 10.0909 2.02896 10.2823 2.02896C10.4737 2.02896 10.6601 2.08998 10.8145 2.20315C10.9688 2.31632 11.0831 2.47575 11.1406 2.65829L12.6906 7.42495H17.6906C17.8889 7.41746 18.0841 7.47507 18.2465 7.58899C18.409 7.7029 18.5296 7.86686 18.5901 8.0558C18.6505 8.24474 18.6475 8.44829 18.5814 8.63533C18.5153 8.82238 18.3897 8.98263 18.224 9.09162L14.1656 12.0333L15.7156 16.8083C15.7769 16.9902 15.7785 17.1869 15.72 17.3697C15.6616 17.5526 15.5463 17.7119 15.3908 17.8245C15.2354 17.9371 15.048 17.9971 14.8561 17.9957C14.6642 17.9943 14.4777 17.9315 14.324 17.8166L10.2573 14.8416L6.19897 17.7916C6.04522 17.9065 5.85877 17.9693 5.66684 17.9707C5.4749 17.9721 5.28754 17.9121 5.13211 17.7995C4.97668 17.6869 4.86133 17.5276 4.80289 17.3447C4.74445 17.1619 4.746 16.9652 4.8073 16.7833L6.3573 12.0083L2.29897 9.06662C2.1332 8.95763 2.00768 8.79738 1.94157 8.61033C1.87546 8.42329 1.8724 8.21975 1.93286 8.0308C1.99333 7.84186 2.11398 7.6779 2.2764 7.56398C2.43881 7.45007 2.63406 7.39246 2.8323 7.39995H7.8323L9.42397 2.65829Z" fill="#151515"/>

<svg width="17" height="16" viewBox="0 0 17 16" fill="none" xmlns="http://www.w3.org/2000/svg">
<path fill-rule="evenodd" clip-rule="evenodd" d="M7.8341 2.1266C7.88015 1.98057 7.97155 1.85303 8.09503 1.76249C8.21851 1.67195 8.36764 1.62314 8.52076 1.62314C8.67388 1.62314 8.82301 1.67195 8.94649 1.76249C9.06997 1.85303 9.16138 1.98057 9.20743 2.1266L10.4474 5.93993H14.4474C14.606 5.93394 14.7622 5.98003 14.8921 6.07116C15.0221 6.16229 15.1186 6.29345 15.167 6.44461C15.2153 6.59577 15.2129 6.7586 15.16 6.90824C15.1071 7.05787 15.0067 7.18608 14.8741 7.27327L11.6274 9.6266L12.8674 13.4466C12.9165 13.5921 12.9177 13.7495 12.871 13.8957C12.8242 14.042 12.7319 14.1695 12.6076 14.2596C12.4832 14.3497 12.3333 14.3977 12.1798 14.3965C12.0263 14.3954 11.8771 14.3452 11.7541 14.2533L8.50076 11.8733L5.2541 14.2333C5.1311 14.3252 4.98194 14.3754 4.82839 14.3765C4.67484 14.3777 4.52495 14.3297 4.40061 14.2396C4.27627 14.1495 4.18398 14.022 4.13723 13.8757C4.09049 13.7295 4.09172 13.5721 4.14076 13.4266L5.38076 9.6066L2.1341 7.25327C2.00148 7.16608 1.90106 7.03787 1.84818 6.88824C1.79529 6.7386 1.79284 6.57577 1.84121 6.42461C1.88958 6.27345 1.98611 6.14229 2.11604 6.05116C2.24597 5.96003 2.40217 5.91394 2.56076 5.91993H6.56076L7.8341 2.1266Z" fill="#151515"/>

</svg>
